<svg width="1820" height="1820" xmlns="http://www.w3.org/2000/svg" xmlns:xlink="http://www.w3.org/1999/xlink" overflow="hidden"><defs><filter id="fx0" x="-10%" y="-10%" width="120%" height="120%" filterUnits="userSpaceOnUse" primitiveUnits="userSpaceOnUse"><feComponentTransfer color-interpolation-filters="sRGB"><feFuncR type="discrete" tableValues="0 0"/><feFuncG type="discrete" tableValues="0 0"/><feFuncB type="discrete" tableValues="0 0"/><feFuncA type="linear" slope="0.4" intercept="0"/></feComponentTransfer><feGaussianBlur stdDeviation="7.63889 7.63889"/></filter><filter id="fx1" x="-10%" y="-10%" width="120%" height="120%" filterUnits="userSpaceOnUse" primitiveUnits="userSpaceOnUse"><feComponentTransfer color-interpolation-filters="sRGB"><feFuncR type="discrete" tableValues="0.431373 0.431373"/><feFuncG type="discrete" tableValues="0.454902 0.454902"/><feFuncB type="discrete" tableValues="0.478431 0.478431"/><feFuncA type="linear" slope="0.431373" intercept="0"/></feComponentTransfer><feGaussianBlur stdDeviation="5.06331 5.06331"/></filter><clipPath id="clip2"><rect x="1526" y="252" width="1820" height="1820"/></clipPath><clipPath id="clip3"><rect x="-7" y="-7" width="483" height="1245"/></clipPath><clipPath id="clip4"><rect x="0" y="0" width="470" height="1232"/></clipPath><clipPath id="clip5"><rect x="262" y="212" width="705" height="413"/></clipPath><clipPath id="clip6"><rect x="0" y="0" width="1231" height="958"/></clipPath></defs><g clip-path="url(#clip2)" transform="translate(-1526 -252)"><path d="M1526.5 476.784C1526.5 352.915 1626.92 252.5 1750.78 252.5L3121.22 252.5C3245.08 252.5 3345.5 352.915 3345.5 476.784L3345.5 1847.22C3345.5 1971.08 3245.08 2071.5 3121.22 2071.5L1750.78 2071.5C1626.92 2071.5 1526.5 1971.08 1526.5 1847.22Z" stroke="#7030A0" stroke-width="1.14583" stroke-miterlimit="8" fill="#7030A0" fill-rule="evenodd"/><g clip-path="url(#clip3)" filter="url(#fx0)" transform="translate(1636 546)"><g clip-path="url(#clip4)"><path d="M203.388 24.4 286 96.354 234.522 190.368C171.629 321.19 136.85 465.022 136.85 616 136.85 766.978 171.629 910.81 234.522 1041.63L286 1135.65 203.388 1207.6 187.507 1184.6C83.1422 1015.58 23.8601 821.88 23.8601 616 23.8601 410.121 83.1422 216.423 187.507 47.3984L203.388 24.4Z" fill="#FFFFFF" fill-rule="evenodd"/><path d="M361.265 181.48 446.14 255.334 432.168 280.828C382.594 383.846 355.18 497.109 355.18 616 355.18 734.891 382.594 848.154 432.168 951.172L446.14 976.666 361.265 1050.52 328.011 989.846C272.717 874.941 242.14 748.609 242.14 616 242.14 483.391 272.717 357.059 328.011 242.154L361.265 181.48Z" fill="#FFFFFF" fill-rule="evenodd"/></g></g><path d="M1840.01 582 1921 652.543 1870.53 744.714C1808.87 872.971 1774.77 1013.98 1774.77 1162 1774.77 1310.02 1808.87 1451.03 1870.53 1579.29L1921 1671.46 1840.01 1742 1824.44 1719.45C1722.12 1553.74 1664 1363.84 1664 1162 1664 960.158 1722.12 770.258 1824.44 604.547L1840.01 582Z" fill="#FFFFFF" fill-rule="evenodd"/><path d="M1994.79 736 2078 808.406 2064.3 833.4C2015.7 934.398 1988.82 1045.44 1988.82 1162 1988.82 1278.56 2015.7 1389.6 2064.3 1490.6L2078 1515.59 1994.79 1588 1962.19 1528.52C1907.98 1415.86 1878 1292.01 1878 1162 1878 1031.99 1907.98 908.136 1962.19 795.484L1994.79 736Z" fill="#FFFFFF" fill-rule="evenodd"/><path d="M2711 894.75C2930.17 272.333 3784.92 894.75 2711 1695 1637.08 894.75 2491.83 272.333 2711 894.75Z" fill="#FFFFFF" fill-rule="evenodd"/><g clip-path="url(#clip5)" filter="url(#fx1)" transform="translate(2088 675)"><g clip-path="url(#clip6)"><path d="M-4.58334-33.3008C-7.44792-29.5768-17.9036-27.7148-35.9505-27.7148-46.4062-27.7148-55.1432-28.3952-62.1615-29.7559-69.1797-31.1165-74.8014-33.4082-79.0267-36.6309-83.2519-39.8535-86.2598-44.1146-88.0501-49.4141-89.8405-54.7135-90.7357-61.2305-90.7357-68.9648L-90.7357-203.457C-90.7357-212.624-98.9713-231.745-115.443-260.82-104.414-260.82-88.6588-273.424-68.1771-298.633L-68.1771-92.8125C-68.1771-85.651-67.5325-79.3489-66.2435-73.9062-64.9544-68.4635-62.7344-63.6654-59.5833-59.5117-56.4323-55.3581-52.2428-51.7057-47.015-48.5547-41.7871-45.4036-35.2344-42.5391-27.3568-39.9609-24.6354-39.1016-21.377-38.1706-17.5814-37.168-13.7858-36.1654-9.45313-34.8763-4.58334-33.3008ZM-132.57-64.2383C-132.57-53.2096-138.228-42.1094-149.543-30.9375L-237.843 55.4297C-251.021 68.3203-267.85 74.7656-288.332 74.7656-293.488 74.7656-297.928 74.0495-301.652 72.6172-294.061 70.612-286.183 67.3535-278.019 62.8418-269.855 58.3301-261.118 51.5625-251.808 42.5391L-187.355-20.1953C-176.183-31.0807-170.597-40.0325-170.597-47.0508-170.597-48.6263-174.107-56.4323-181.125-70.4687L-190.578-89.5898C-197.883-104.342-201.535-114.225-201.535-119.238-201.535-127.975-198.026-136.283-191.008-144.16L-164.367-169.727C-166.372-162.995-167.375-157.409-167.375-152.969-167.375-147.669-164.295-138.932-158.136-126.758L-143.957-98.3984C-136.366-82.9297-132.57-71.543-132.57-64.2383ZM-245.566-36.9531C-252.155-30.7943-260.176-27.7148-269.629-27.7148L-465.781-27.7148-465.781-80.3516C-447.161-66.7448-428.327-59.9414-409.277-59.9414L-311.953-59.9414-320.762-77.3437-403.477-77.3437C-416.081-77.3437-426.751-86.1523-435.488-103.77L-452.676-137.93C-455.54-143.372-460.124-147.669-466.426-150.82L-438.281-178.75-411.426-124.609C-406.556-114.583-399.753-109.57-391.016-109.57L-300.996-109.57C-297.415-109.57-293.047-104.199-287.891-93.457L-273.281-62.5195C-270.56-56.6471-268.197-51.9922-266.191-48.5547-264.186-45.1172-262.217-42.5391-260.283-40.8203-258.35-39.1016-256.237-38.0273-253.945-37.5977-251.654-37.168-248.861-36.9531-245.566-36.9531ZM-503.522-58.6523C-503.522-48.9128-509.108-38.6003-520.28-27.7148L-605.358 55.4297C-618.535 68.3203-635.365 74.7656-655.846 74.7656-661.003 74.7656-665.443 74.0495-669.167 72.6172-665.443 71.6146-661.647 70.3613-657.78 68.8574-653.913 67.3535-649.938 65.4199-645.856 63.0566-641.774 60.6934-637.513 57.8288-633.073 54.4629-628.633 51.097-624.049 47.1224-619.323 42.5391L-581.94 6.44531C-576.211 0.859375-573.346-3.4375-573.346-6.44531-573.346-9.30989-576.641-14.0365-583.229-20.625L-616.315-53.2812C-618.893-55.8594-620.97-58.0078-622.546-59.7266-624.121-61.4453-625.339-63.0208-626.198-64.4531-627.057-65.8854-627.63-67.3535-627.917-68.8574-628.203-70.3613-628.346-72.2591-628.346-74.5508-628.346-79.2773-627.057-83.5026-624.479-87.2266-621.901-90.9505-619.18-94.2448-616.315-97.1094L-539.401-174.023C-540.69-169.44-541.335-164.714-541.335-159.844-541.335-152.826-537.539-141.797-529.948-126.758L-515.768-98.3984C-507.604-82.0703-503.522-68.8216-503.522-58.6523ZM-533.385-48.3398C-533.385-52.0638-534.818-56.6471-537.682-62.0898L-555.729-96.25C-557.734-99.8307-558.737-102.91-558.737-105.488-558.737-107.78-558.701-109.678-558.63-111.182-558.558-112.686-558.451-113.796-558.307-114.512-568.333-106.204-573.346-99.1862-573.346-93.457-573.346-89.3034-571.628-84.1471-568.19-77.9883L-552.292-48.7695C-550-44.6159-548.496-41.2858-547.78-38.7793-547.064-36.2728-546.634-33.9453-546.491-31.7969-546.491-31.3672-546.527-30.9375-546.598-30.5078-546.67-30.0781-546.706-29.72-546.706-29.4336-537.826-37.4544-533.385-43.7565-533.385-48.3398Z" fill="#7030A0" transform="translate(950.349 531)"/></g></g><path d="M-4.58334-33.3008C-7.44792-29.5768-17.9036-27.7148-35.9505-27.7148-46.4062-27.7148-55.1432-28.3952-62.1615-29.7559-69.1797-31.1165-74.8014-33.4082-79.0267-36.6309-83.2519-39.8535-86.2598-44.1146-88.0501-49.4141-89.8405-54.7135-90.7357-61.2305-90.7357-68.9648L-90.7357-203.457C-90.7357-212.624-98.9713-231.745-115.443-260.82-104.414-260.82-88.6588-273.424-68.1771-298.633L-68.1771-92.8125C-68.1771-85.651-67.5325-79.3489-66.2435-73.9062-64.9544-68.4635-62.7344-63.6654-59.5833-59.5117-56.4323-55.3581-52.2428-51.7057-47.015-48.5547-41.7871-45.4036-35.2344-42.5391-27.3568-39.9609-24.6354-39.1016-21.377-38.1706-17.5814-37.168-13.7858-36.1654-9.45313-34.8763-4.58334-33.3008ZM-132.57-64.2383C-132.57-53.2096-138.228-42.1094-149.543-30.9375L-237.843 55.4297C-251.021 68.3203-267.85 74.7656-288.332 74.7656-293.488 74.7656-297.928 74.0495-301.652 72.6172-294.061 70.612-286.183 67.3535-278.019 62.8418-269.855 58.3301-261.118 51.5625-251.808 42.5391L-187.355-20.1953C-176.183-31.0807-170.597-40.0325-170.597-47.0508-170.597-48.6263-174.107-56.4323-181.125-70.4687L-190.578-89.5898C-197.883-104.342-201.535-114.225-201.535-119.238-201.535-127.975-198.026-136.283-191.008-144.16L-164.367-169.727C-166.372-162.995-167.375-157.409-167.375-152.969-167.375-147.669-164.295-138.932-158.136-126.758L-143.957-98.3984C-136.366-82.9297-132.57-71.543-132.57-64.2383ZM-245.566-36.9531C-252.155-30.7943-260.176-27.7148-269.629-27.7148L-465.781-27.7148-465.781-80.3516C-447.161-66.7448-428.327-59.9414-409.277-59.9414L-311.953-59.9414-320.762-77.3437-403.477-77.3437C-416.081-77.3437-426.751-86.1523-435.488-103.77L-452.676-137.93C-455.54-143.372-460.124-147.669-466.426-150.82L-438.281-178.75-411.426-124.609C-406.556-114.583-399.753-109.57-391.016-109.57L-300.996-109.57C-297.415-109.57-293.047-104.199-287.891-93.457L-273.281-62.5195C-270.56-56.6471-268.197-51.9922-266.191-48.5547-264.186-45.1172-262.217-42.5391-260.283-40.8203-258.35-39.1016-256.237-38.0273-253.945-37.5977-251.654-37.168-248.861-36.9531-245.566-36.9531ZM-503.522-58.6523C-503.522-48.9128-509.108-38.6003-520.28-27.7148L-605.358 55.4297C-618.535 68.3203-635.365 74.7656-655.846 74.7656-661.003 74.7656-665.443 74.0495-669.167 72.6172-665.443 71.6146-661.647 70.3613-657.78 68.8574-653.913 67.3535-649.938 65.4199-645.856 63.0566-641.774 60.6934-637.513 57.8288-633.073 54.4629-628.633 51.097-624.049 47.1224-619.323 42.5391L-581.94 6.44531C-576.211 0.859375-573.346-3.4375-573.346-6.44531-573.346-9.30989-576.641-14.0365-583.229-20.625L-616.315-53.2812C-618.893-55.8594-620.97-58.0078-622.546-59.7266-624.121-61.4453-625.339-63.0208-626.198-64.4531-627.057-65.8854-627.63-67.3535-627.917-68.8574-628.203-70.3613-628.346-72.2591-628.346-74.5508-628.346-79.2773-627.057-83.5026-624.479-87.2266-621.901-90.9505-619.18-94.2448-616.315-97.1094L-539.401-174.023C-540.69-169.44-541.335-164.714-541.335-159.844-541.335-152.826-537.539-141.797-529.948-126.758L-515.768-98.3984C-507.604-82.0703-503.522-68.8216-503.522-58.6523ZM-533.385-48.3398C-533.385-52.0638-534.818-56.6471-537.682-62.0898L-555.729-96.25C-557.734-99.8307-558.737-102.91-558.737-105.488-558.737-107.78-558.701-109.678-558.63-111.182-558.558-112.686-558.451-113.796-558.307-114.512-568.333-106.204-573.346-99.1862-573.346-93.457-573.346-89.3034-571.628-84.1471-568.19-77.9883L-552.292-48.7695C-550-44.6159-548.496-41.2858-547.78-38.7793-547.064-36.2728-546.634-33.9453-546.491-31.7969-546.491-31.3672-546.527-30.9375-546.598-30.5078-546.67-30.0781-546.706-29.72-546.706-29.4336-537.826-37.4544-533.385-43.7565-533.385-48.3398Z" fill="#7030A0" transform="translate(3038.35 1196)"/></g></svg>